# Blender 3.4.1
# www.blender.org
o Curvey_2
v -10.000003 0.000000 -9.999997
v 10.000003 0.000000 9.999997
v -9.999997 0.000000 10.000003
v 9.999997 0.000000 -10.000003
v -10.000001 0.000000 0.000003
v 7.142854 0.000000 -10.000002
v 4.285711 0.000000 -10.000001
v 1.428568 0.000000 -10.000000
v -1.428575 0.000000 -10.000000
v -4.285717 0.000000 -9.999999
v -7.142861 0.000000 -9.999998
v -4.285711 0.000000 10.000001
v -1.428568 0.000000 10.000000
v 1.428575 0.000000 10.000000
v 4.285717 0.000000 9.999999
v 7.142861 0.000000 9.999998
v -1.428573 0.000000 -5.000000
v 7.058700 0.000000 -7.500001
v -4.642857 0.000000 -4.999998
v -4.642857 0.000000 5.000001
v -1.428570 0.000000 5.000000
v -7.142854 0.000000 10.000002
v 7.058705 0.000000 7.499999
v 9.999997 4.000000 -10.000003
v -7.142861 4.000000 -9.999998
v -10.000003 4.000000 -9.999997
v -9.999997 4.000000 10.000003
v 7.142861 4.000000 9.999998
v 10.000003 4.000000 9.999997
v 10.000002 4.000000 4.999997
v 9.999998 4.000000 -5.000003
v 7.058705 1.179100 7.499999
v -10.000001 4.000000 0.000003
v 7.058700 1.179100 -7.500001
v 9.999998 1.179100 -5.000003
v 7.142854 4.000000 -10.000002
v -7.142854 4.000000 10.000002
v 7.058700 4.000000 -7.500001
v 10.000002 1.179100 4.999997
v -4.642857 4.000000 -4.999998
v 7.058705 4.000000 7.499999
v -4.642857 4.000000 5.000000
vn -0.0000 -0.0000 1.0000
vn 1.0000 -0.0000 -0.0000
vn -1.0000 -0.0000 -0.0000
vn -0.0000 -0.0000 -1.0000
vn -0.9994 -0.0000 -0.0336
vn -0.9994 -0.0000 0.0336
vn -0.6476 -0.0000 0.7620
vn 0.8944 -0.0000 -0.4472
vn -0.0000 1.0000 -0.0000
vn -0.6476 -0.0000 -0.7620
vn 0.8944 -0.0000 0.4472
vt 0.000000 0.000000
vt 0.000000 0.000000
vt 0.000000 0.000000
vt 0.000000 0.000000
vt 0.000000 0.000000
vt 0.000000 0.000000
vt 0.142857 0.000000
vt 0.285714 0.000000
vt 0.428571 0.000000
vt 0.571429 0.000000
vt 0.714286 0.000000
vt 0.000000 0.000000
vt 0.857143 0.000000
vt 0.714286 1.000000
vt 0.571429 1.000000
vt 0.428571 1.000000
vt 0.285714 1.000000
vt 0.000000 0.000000
vt 0.142857 1.000000
vt 0.571429 0.250000
vt 0.285714 0.125000
vt 0.714286 0.250000
vt 0.714286 0.750000
vt 0.571429 0.750000
vt 0.000000 0.000000
vt 0.857143 1.000000
vt 0.285714 0.875000
vt 0.000000 0.000000
vt 0.000000 0.000000
vt 0.857143 0.000000
vt 0.000000 0.000000
vt 1.000000 0.000000
vt 0.000000 0.000000
vt 0.000000 0.000000
vt 0.142857 1.000000
vt 0.000000 0.000000
vt 0.000000 1.000000
vt 0.000000 0.750000
vt 0.000000 0.250000
vt 0.285714 0.875000
vt 0.000000 0.000000
vt 1.000000 0.375000
vt -0.051189 -0.053748
vt 0.285714 0.125000
vt 0.000000 0.250000
vt 0.000000 0.000000
vt 0.000000 0.000000
vt 0.142857 0.000000
vt 0.000000 0.000000
vt 0.857143 1.000000
vt 0.285714 0.125000
vt 0.000000 0.000000
vt 0.000000 0.750000
vt 0.714286 0.250000
vt 0.285714 0.875000
vt 0.802388 0.712536
vt 0.273775 0.095821
s 0
f 3/3/1 22/25/1 37/49/1 27/33/1
f 29/37/2 2/2/2 39/53/2 30/38/2
f 5/5/3 3/3/3 27/33/3 33/43/3
f 16/18/1 2/2/1 29/36/1 28/34/1
f 20/23/2 19/22/2 40/54/2
f 11/12/4 1/1/4 26/31/4 25/29/4
f 18/21/5 34/44/5 38/51/5 36/48/5 6/6/5
f 28/35/6 41/55/6 32/40/6 23/27/6 16/19/6
f 31/39/7 38/51/7 34/44/7 35/45/7
f 19/22/8 11/13/8 25/30/8 40/54/8
f 4/4/4 6/6/4 36/47/4 24/28/4
f 1/1/3 5/5/3 33/41/3 26/31/3
f 6/7/9 7/8/9 18/21/9
f 7/8/9 8/9/9 18/21/9
f 8/9/9 9/10/9 17/20/9 18/21/9
f 9/10/9 10/11/9 19/22/9 17/20/9
f 10/11/9 11/13/9 19/22/9
f 23/27/9 15/17/9 16/19/9
f 23/27/9 14/16/9 15/17/9
f 23/27/9 21/24/9 13/15/9 14/16/9
f 21/24/9 20/23/9 12/14/9 13/15/9
f 20/23/9 22/26/9 12/14/9
f 25/30/9 33/42/9 40/54/9
f 33/43/9 37/49/9 42/57/9
f 33/42/9 25/30/9 26/32/9
f 37/49/9 33/43/9 27/33/9
f 41/55/10 30/38/10 39/53/10 32/40/10
f 18/21/9 17/20/9 21/24/9 23/27/9
f 31/39/9 36/48/9 38/51/9
f 35/46/9 34/44/9 32/40/9 39/52/9
f 24/28/9 36/48/9 31/39/9
f 30/38/9 41/55/9 28/35/9
f 19/22/9 20/23/9 21/24/9 17/20/9
f 22/26/11 20/23/11 42/56/11 37/50/11
f 28/35/9 29/37/9 30/38/9
f 23/27/3 32/40/3 34/44/3 18/21/3
f 42/56/2 20/23/2 40/54/2
f 33/43/9 42/57/9 40/54/9
f 35/46/2 4/4/2 24/28/2 31/39/2
f 39/53/2 2/2/2 4/4/2 35/46/2
