# Blender 3.4.1
# www.blender.org
o Plane
v -10.000000 0.000000 10.000000
v 10.000000 0.000000 10.000000
v -10.000000 0.000000 -10.000000
v 10.000000 0.000000 -10.000000
v -10.000000 0.000000 -5.000000
v -10.000000 0.000000 5.000000
v 10.000000 0.000000 7.500000
v 10.000000 0.000000 2.500000
v 10.000000 0.000000 -2.500000
v -7.142858 0.000000 10.000000
v -4.285714 0.000000 10.000000
v -1.428571 0.000000 10.000000
v 1.428571 0.000000 10.000000
v 4.285714 0.000000 10.000000
v 7.142858 0.000000 10.000000
v 4.285714 0.000000 -10.000000
v 1.428571 0.000000 -10.000000
v -1.428571 0.000000 -10.000000
v -4.285714 0.000000 -10.000000
v -7.142858 0.000000 -10.000000
v 4.285714 0.000000 7.500000
v 1.428571 0.000000 5.000000
v -1.428571 0.000000 5.000000
v -4.285714 0.000000 7.500000
v 4.285714 0.000000 5.000000
v 4.285714 0.000000 0.000000
v 1.428571 0.000000 0.000000
v 7.142858 0.000000 0.000000
v 7.142858 0.000000 -2.500000
v 1.428571 0.000000 -5.000000
v 7.142858 0.000000 -10.000000
v 4.285714 0.000000 -5.000000
v -1.428571 0.000000 -5.000000
v -4.285714 0.000000 -7.500000
v -10.000000 4.000000 10.000000
v 7.142858 4.000000 10.000000
v 10.000000 4.000000 10.000000
v 10.000000 4.000000 -10.000000
v -7.142858 4.000000 -10.000000
v -10.000000 4.000000 -10.000000
v -10.000000 4.000000 -5.000000
v -10.000000 4.000000 5.000000
v 10.000000 2.046264 7.500000
v 10.000000 2.046264 2.500000
v 10.000000 2.046264 -2.500000
v -7.142858 4.000000 5.000000
v -7.142858 4.000000 2.500000
v -7.142858 4.000000 -2.500000
v -7.142858 4.000000 -5.000000
v -4.285714 4.000000 -7.500000
v -7.142858 4.000000 10.000000
v 7.142858 4.000000 -10.000000
v 4.285714 2.046264 7.500000
v -4.285714 4.000000 7.500000
v 4.285714 2.046264 5.000000
v -1.428571 9.062387 5.000000
v -4.285714 9.062387 2.500000
v 7.142858 2.046264 0.000000
v 1.428571 15.408096 0.000000
v -4.285714 9.062387 -2.500000
v 7.142858 2.046264 -2.500000
v -1.428571 9.062387 -5.000000
v 4.285714 2.046264 -5.000000
vn -0.0000 -0.0000 -1.0000
vn -1.0000 -0.0000 -0.0000
vn -0.8682 -0.0000 -0.4961
vn 1.0000 -0.0000 -0.0000
vn 0.6585 -0.0000 0.7526
vn -0.0000 -0.0000 1.0000
vn 0.6585 -0.0000 -0.7526
vn -0.0000 1.0000 -0.0000
vn -0.6585 -0.0000 0.7526
vn 0.8682 -0.0000 -0.4961
vn -0.0000 0.7879 -0.6158
vn -0.0000 0.9677 0.2521
vn -0.5285 0.5966 -0.6040
vn -0.2154 0.9450 0.2462
vn -0.8709 0.4915 -0.0000
vn -0.7431 0.6692 -0.0000
vn -0.5285 0.5966 0.6040
vn 0.8682 -0.0000 0.4961
vn -0.4920 0.6646 -0.5623
vn -0.4920 0.6646 0.5623
vt 0.000000 0.000000
vt 0.000000 0.000000
vt 0.000000 0.000000
vt 0.000000 0.000000
vt 0.000000 0.000000
vt 0.000000 0.000000
vt 0.000000 0.000000
vt 0.000000 0.000000
vt 0.000000 0.000000
vt 0.000000 0.000000
vt 0.142857 0.000000
vt 0.285714 0.000000
vt 0.428571 0.000000
vt 0.571429 0.000000
vt 0.714286 0.000000
vt 0.000000 0.000000
vt 0.857143 0.000000
vt 0.714286 1.000000
vt 0.571429 1.000000
vt 0.428571 1.000000
vt 0.285714 1.000000
vt 0.000000 0.000000
vt 0.142857 1.000000
vt 0.714286 0.125000
vt 0.571429 0.250000
vt 0.428571 0.250000
vt 0.285714 0.125000
vt 0.714286 0.250000
vt 0.714286 0.500000
vt 0.571429 0.500000
vt 0.857143 0.500000
vt 0.857143 0.625000
vt 0.571429 0.750000
vt 0.000000 0.000000
vt 0.857143 1.000000
vt 0.714286 0.750000
vt 0.428571 0.750000
vt 0.285714 0.875000
vt 0.000000 0.000000
vt 0.000000 0.000000
vt 0.857143 0.000000
vt 0.000000 0.000000
vt 1.000000 0.000000
vt 0.000000 0.000000
vt 0.000000 0.000000
vt 0.142857 1.000000
vt 0.000000 0.000000
vt 0.000000 1.000000
vt 0.000000 0.750000
vt 0.000000 0.000000
vt 0.000000 0.250000
vt 0.000000 0.000000
vt 0.000000 0.000000
vt 1.000000 0.125000
vt 0.000000 0.000000
vt 1.000000 0.375000
vt 1.000000 0.625000
vt 0.000000 0.000000
vt 0.142857 0.250000
vt 0.142857 0.375000
vt 0.142857 0.625000
vt 0.142857 0.750000
vt 0.285714 0.875000
vt 0.000000 0.000000
vt 0.142857 0.000000
vt 0.000000 0.000000
vt 0.857143 1.000000
vt 0.714286 0.125000
vt 0.285714 0.125000
vt 0.714286 0.250000
vt 0.428571 0.250000
vt 0.285714 0.375000
vt 0.857143 0.500000
vt 0.571429 0.500000
vt 0.285714 0.625000
vt 0.857143 0.625000
vt 0.428571 0.750000
vt 0.714286 0.750000
s 0
f 4/4/1 31/34/1 52/66/1 38/44/1
f 3/3/2 5/5/2 41/50/2 40/47/2
f 28/31/3 25/28/3 55/70/3 58/73/3
f 9/9/4 4/4/4 38/44/4 45/58/4
f 20/22/1 3/3/1 40/47/1 39/45/1
f 24/27/5 23/26/5 56/71/5 54/69/5
f 29/32/2 28/31/2 58/73/2 61/76/2
f 8/8/4 9/9/4 45/58/4 44/55/4
f 15/16/6 2/2/6 37/42/6 36/40/6
f 34/38/7 20/23/7 39/46/7 50/63/7
f 6/6/2 1/1/2 35/39/2 42/52/2
f 27/30/8 30/33/8 33/37/8
f 27/30/8 26/29/8 32/36/8 30/33/8
f 26/29/8 28/31/8 29/32/8 32/36/8
f 33/37/7 34/38/7 50/63/7 62/77/7
f 21/24/9 15/17/9 36/41/9 53/68/9
f 27/30/10 33/37/10 62/77/10 59/74/10
f 7/7/4 8/8/4 44/55/4 43/53/4
f 1/1/6 10/10/6 51/64/6 35/39/6
f 23/26/8 22/25/8 27/30/8
f 22/25/8 25/28/8 26/29/8 27/30/8
f 25/28/8 28/31/8 26/29/8
f 22/25/8 21/24/8 25/28/8
f 2/2/4 7/7/4 43/53/4 37/42/4
f 10/11/8 11/12/8 24/27/8
f 11/12/8 12/13/8 23/26/8 24/27/8
f 12/13/8 13/14/8 22/25/8 23/26/8
f 13/14/8 14/15/8 21/24/8 22/25/8
f 14/15/8 15/17/8 21/24/8
f 34/38/8 19/21/8 20/23/8
f 34/38/8 33/37/8 18/20/8 19/21/8
f 33/37/8 30/33/8 17/19/8 18/20/8
f 30/33/8 32/36/8 16/18/8 17/19/8
f 32/36/8 31/35/8 16/18/8
f 36/41/11 43/54/11 53/68/11
f 53/68/8 43/54/8 44/56/8 58/73/8
f 43/54/11 36/41/11 37/43/11
f 58/73/8 44/56/8 45/57/8 61/76/8
f 52/66/12 61/76/12 45/58/12 38/44/12
f 41/49/8 49/62/8 50/63/8
f 49/62/13 62/77/13 50/63/13
f 63/78/14 61/76/14 52/67/14
f 41/49/8 48/61/8 49/62/8
f 48/61/15 60/75/15 49/62/15
f 42/52/8 47/60/8 48/61/8 41/50/8
f 47/60/15 57/72/15 60/75/15 48/61/15
f 57/72/16 59/74/16 60/75/16
f 42/51/8 51/65/8 54/69/8
f 46/59/15 57/72/15 47/60/15
f 42/51/8 54/69/8 46/59/8
f 54/69/17 56/71/17 46/59/17
f 53/68/8 58/73/8 55/70/8
f 35/39/8 51/65/8 42/51/8
f 41/49/8 50/63/8 39/46/8
f 57/72/17 46/59/17 56/71/17
f 23/26/18 27/30/18 59/74/18 56/71/18
f 25/28/2 21/24/2 53/68/2 55/70/2
f 47/60/8 42/52/8 46/59/8
f 31/35/3 32/36/3 63/78/3 52/67/3
f 49/62/13 60/75/13 62/77/13
f 10/11/5 24/27/5 54/69/5 51/65/5
f 39/46/8 40/48/8 41/49/8
f 32/36/9 29/32/9 61/76/9 63/78/9
f 5/5/2 6/6/2 42/52/2 41/50/2
f 60/75/19 59/74/19 62/77/19
f 59/74/20 57/72/20 56/71/20
